<svg xmlns="http://www.w3.org/2000/svg" viewBox="0 0 163.39 163.39"><defs><clipPath id="clip-path"><circle cx="83.61" cy="81.54" r="59.04" fill="none"/></clipPath><style>.cls-11,.cls-8{fill:none}.cls-11,.cls-6,.cls-8{stroke:#262626}.cls-6,.cls-8{stroke-miterlimit:10}.cls-4,.cls-6{fill:#fff}.cls-5{fill:#3b44ac}.cls-6{stroke-width:.72px}.cls-7{fill:#f74d5e}.cls-11,.cls-8{stroke-width:1.67px}.cls-11{stroke-linecap:round;stroke-linejoin:round}</style></defs><g id="Layer_2" data-name="Layer 2"><g id="Layer_1-2" data-name="Layer 1"><circle cx="81.7" cy="81.7" r="80.93" stroke-width="1.5" stroke-miterlimit="10" stroke="#262626" fill="#fff"/><circle cx="81.7" cy="81.7" r="68.65" stroke-miterlimit="10" stroke="#262626" fill="#262626" stroke-width=".9"/><g clip-path="url(#clip-path)"><path class="cls-4" d="M117 68.88a106.88 106.88 0 0 0-15.88-15c-.58-.41-1.15-.81-1.74-1.21A71.61 71.61 0 0 0 84.75 45l-.08.22v.39a14.3 14.3 0 0 1-12.59 14.23C85 60 97 60.63 102.58 79.93c.25.87.48 1.78.71 2.73a86.07 86.07 0 0 0 6.91 17.88 24.48 24.48 0 0 0 2 1.68 32.86 32.86 0 0 0 16.69 6.07 1.88 1.88 0 0 0 1.7-.86c5.78-8.66-1.59-24.57-13.59-38.55z"/><path class="cls-5" d="M112.25 102.22c-.14.35-.3.69-.47 1-.56-.88-1.08-1.78-1.58-2.71a24.48 24.48 0 0 0 2.05 1.71z"/><path class="cls-4" d="M111.78 103.25c-.56-.88-1.08-1.78-1.58-2.71a86.07 86.07 0 0 1-6.91-17.88c-.23-1-.46-1.86-.71-2.73l-.38.1c-2.87 2.32-9.66 2.18-12.76 1.53h-.15a40.73 40.73 0 0 1 1.52 11.17 91.23 91.23 0 0 1-1.35 12.5 41.39 41.39 0 0 0 16.39 8.15c.61.15 1.22.28 1.83.4a39.35 39.35 0 0 0 6.88.72h.56a37 37 0 0 0 3.81-.19c.94-.08 1.87-.21 2.79-.36a36.39 36.39 0 0 1-9.94-10.7z"/><path class="cls-4" d="m102.58 79.93-.38.1c-2.76-7.17-6.34-9-13.14-9.48a16.65 16.65 0 0 0-4.41.5l-.18.11A34 34 0 0 0 72 60.08v-.22h.13C85 60 97 60.63 102.58 79.93z"/><path class="cls-4" d="M89.06 70.55c6.8.43 10.38 2.31 13.14 9.48-2.87 2.32-9.66 2.18-12.76 1.53h-.15a35.86 35.86 0 0 0-4.82-10.45l.18-.11a16.65 16.65 0 0 1 4.41-.45zm3.38 11A5.31 5.31 0 0 0 91 71a5.08 5.08 0 0 0-4.11 3.51A32.84 32.84 0 0 1 89.43 81a4.92 4.92 0 0 0 3.01.51z"/><path class="cls-6" d="M90.15 124.15a.68.68 0 0 1-.74 1 37.33 37.33 0 0 1-15.3-7.32c-5.74-4.85-8.71-11.6-7.91-20.13L67 92c2-14.66-1.09-21.68-11.68-20l15.26-12a10.7 10.7 0 0 0 1.42-.14v.22a34 34 0 0 1 12.5 11.08 35.86 35.86 0 0 1 4.82 10.45 40.73 40.73 0 0 1 1.52 11.17 91.23 91.23 0 0 1-1.35 12.5c-.3 1.83-.53 3-.53 3-.96 8.24-.83 12.56 1.19 15.87z"/><path class="cls-6" d="M33.64 69.5c-.42 1.9-1.48 2-2.27 1.69a1.52 1.52 0 0 1-1-1.67.17.17 0 0 1 0-.07A34.05 34.05 0 0 1 68.53 40.9 73.51 73.51 0 0 1 84.75 45l-.08.22v.39a14.3 14.3 0 0 1-12.59 14.23h-1.37a22.6 22.6 0 0 0-37 9.63zm40.46 48.35v.06l-17.19 27.64c-21.32 0-33.42-22.84-44.7-39.14L55.3 72C65.89 70.32 69 77.34 67 92l-.78 5.71c-1.6 12.1 7.88 20.14 7.88 20.14z"/><path class="cls-5" d="M70.66 59.87h1.37-.13a10.7 10.7 0 0 1-1.39.08z"/><path class="cls-7" d="M114.56 114.55a16 16 0 0 1-9.72 13.67 20.82 20.82 0 0 0 3-11.33 23 23 0 0 0-.25-2.79l.05-.28a39.35 39.35 0 0 0 6.92.73z"/><path class="cls-7" d="M118.84 114.4a37 37 0 0 1-3.81.19h-.56a16 16 0 0 1-9.62 13.62 20.83 20.83 0 0 0 3-11.31 23 23 0 0 0-.25-2.79l.05-.28c-.61-.12-1.22-.25-1.83-.4l-.36.5a18.29 18.29 0 0 1 .11 2 16.68 16.68 0 0 1-7 13.6 15.82 15.82 0 0 0 6.13-1.23 20.77 20.77 0 0 1-5.28 5.81A20 20 0 0 0 118.9 115z"/><path class="cls-8" d="M30.4 69.45A34.05 34.05 0 0 1 68.53 40.9 73.51 73.51 0 0 1 84.75 45a71.61 71.61 0 0 1 14.64 7.61"/><path d="M30.37 69.65a.59.59 0 0 1 0-.13" stroke="#ed2121" stroke-width="1.67" stroke-miterlimit="10" fill="none"/><path class="cls-8" d="M103.29 82.66c-.23-1-.46-1.86-.71-2.73C97 60.63 85 60 72.08 59.84h-1.37"/><path class="cls-8" d="M84.67 45.24v.39a14.3 14.3 0 0 1-12.59 14.21h-.13a10.7 10.7 0 0 1-1.39.08h-.2"/><path d="M101.13 53.84c-.58-.41-1.15-.81-1.74-1.21" stroke="#001d35" stroke-width="1.67" stroke-miterlimit="10" fill="none"/><path class="cls-8" d="M89.44 81.56c3.1.65 9.89.79 12.76-1.53-2.76-7.17-6.34-9-13.14-9.48a16.65 16.65 0 0 0-4.41.5M51.48 54a22.61 22.61 0 0 0-17.84 15.5l-.15.47m37.18-10.09A22.52 22.52 0 0 0 51.48 54"/><path class="cls-8" d="M33.64 69.5c-.42 1.9-1.48 2-2.27 1.69a1.52 1.52 0 0 1-1-1.67.17.17 0 0 1 0-.07 1.09 1.09 0 0 1 .07-.24M55.05 72a1.07 1.07 0 0 1 .25 0C65.89 70.32 69 77.34 67 92l-.78 5.71c-.8 8.53 2.17 15.28 7.91 20.13a37.33 37.33 0 0 0 15.3 7.32.68.68 0 0 0 .74-1c-2-3.31-2.18-7.63-1.22-15.82 0 0 .23-1.22.53-3a91.23 91.23 0 0 0 1.35-12.5 40.73 40.73 0 0 0-1.52-11.17 35.86 35.86 0 0 0-4.82-10.45A34 34 0 0 0 72 60.08"/><path class="cls-8" d="m70.71 59.83-.05.04-.1.07L55.3 71.95l-43.09 34.46"/><path class="cls-11" d="M99.55 134.05A20 20 0 0 0 119 115"/><path class="cls-8" d="M110.2 100.54a24.48 24.48 0 0 0 2 1.68 32.86 32.86 0 0 0 16.69 6.07 1.88 1.88 0 0 0 1.7-.86c5.78-8.66-1.59-24.57-13.59-38.55a106.88 106.88 0 0 0-15.88-15"/><path class="cls-11" d="M103.29 82.66a86.07 86.07 0 0 0 6.91 17.88c.5.93 1 1.83 1.58 2.71a36.39 36.39 0 0 0 9.94 10.75c-.92.15-1.85.28-2.79.36a37 37 0 0 1-3.81.19h-.56a39.35 39.35 0 0 1-6.88-.72c-.61-.12-1.22-.25-1.83-.4a41.39 41.39 0 0 1-16.39-8.15"/></g><path d="M130.89 104.1a9.52 9.52 0 0 1-7.81-8.1 10 10 0 0 1-.08-1.1" stroke-linecap="round" stroke-width="1.67" stroke-miterlimit="10" stroke="#262626" fill="none"/><path d="M67.53 33.7a18.74 18.74 0 0 1-7.66 25.38m-11.8-22.89a16.4 16.4 0 0 1 6.52 22.25M37.71 47.32a10.29 10.29 0 0 1 9.56 11m-14.45-.69A4.91 4.91 0 0 1 38.9 61" style="stroke-width:1.5px;stroke-miterlimit:10;stroke:#262626;fill:none"/><path class="cls-11" d="M107.63 114.11a23 23 0 0 1 .25 2.79 20.82 20.82 0 0 1-8.33 17.15"/><path class="cls-11" d="M98.61 129.5a15.77 15.77 0 0 0 6.23-1.27 16 16 0 0 0 9.72-13.67"/><path class="cls-11" d="M105.46 113.66v.27a18.29 18.29 0 0 1 .11 2 16.68 16.68 0 0 1-7 13.6"/></g></g></svg>