<svg fill="none" height="138" viewBox="0 0 729 138" width="729"
  xmlns="http://www.w3.org/2000/svg">
  <g fill="#63061f">
    <path d="m199.6 129.21 12.4-16.82c6.99 5.12 15.74 7.84 24.83 7.84s14.21-2.73 15.12-7.05c2.25-10.68-37.64-4.77-32.38-29.78 3.61-17.16 20.64-28.41 44.16-28.41 11.25 0 20.98 2.39 27.2 6.82l-11.7 16.71c-5.41-3.98-12.71-6.02-20.55-6.02-9.32 0-15.04 3.41-15.94 7.73-2.41 10.91 37.66 4.66 32.5 29.21-3.59 17.05-20.95 28.3-44.25 28.3-13.64 0-25.26-3.64-31.39-8.52z"/>
    <path d="m374.06 82.16c-4.23 20.12-22.32 33.18-46.3 33.18h-15.91l-8.47 20.8h-22.5l32.65-79.55h33.64c20.68 0 30.29 9.43 26.9 25.57zm-23.14 1.93c1.41-6.71-2.6-9.77-10.45-9.77h-11.82l-9.56 23.3h13.41c9.89 0 16.57-4.77 18.41-13.52z"/>
    <path d="m377.92 102.73c5.81-27.62 30.5-47.73 59.7-47.73 24.43 0 36.51 14.43 32.19 35-5.81 27.62-30.5 47.73-59.7 47.73-24.43 0-36.51-14.43-32.19-35zm68.87-11.37c2.22-10.57-3.09-17.73-15.02-17.73-15.57 0-27.68 12.73-30.83 27.73-2.22 10.57 3.09 17.73 15.02 17.73 15.57 0 27.68-12.73 30.84-27.73z"/>
    <path d="m528.58 93.19 17.67 42.96h-25.12l-12.27-28.64-12.3 9.32-7.93 19.32h-22.16l32.65-79.55h22.16l-13.32 32.5 42.75-32.5h26.48z"/>
    <path d="m605.25 73.98-5.43 13.41h35.34l-6.83 16.82h-35.46l-5.9 14.55h41.71l-7.29 17.39h-63.76l32.65-79.55h62.28l-7.18 17.39h-40.12z"/>
    <path d="m637.62 129.21 12.4-16.82c6.99 5.12 15.74 7.84 24.83 7.84s14.21-2.73 15.12-7.05c2.25-10.68-37.64-4.77-32.38-29.78 3.61-17.16 20.64-28.41 44.16-28.41 11.25 0 20.98 2.39 27.2 6.82l-11.7 16.71c-5.41-3.98-12.71-6.02-20.55-6.02-9.32 0-15.04 3.41-15.94 7.73-2.41 10.91 37.66 4.66 32.5 29.21-3.59 17.05-20.95 28.3-44.25 28.3-13.64 0-25.26-3.64-31.39-8.52z"/>
  </g>
  <path d="m197.52 44.35c0-24.44-21.99-44.35-47.77-44.35s-46.75 19.9-46.75 44.35c0 22.22 17.33 40.69 39.85 43.85l6.16-8.12 3.64-4.82 7.82-10.32c-5.26 2.04-10.72 1.82-10.72 1.82-13.68 0-24.81-10.06-24.81-22.41s11.13-22.41 24.81-22.41 25.82 10.05 25.82 22.41c0 4.39-3.9 13.05-5.87 16.02l-57.82 76.44h25.58l51.36-65.55h-.02c4.24-6.68 8.71-18.56 8.71-26.91z" fill="#ef415f"/>
  <path d="m189.26 44.35c0 6.08-3.65 15.87-6.53 20.88-.1.18-54.49 71.58-54.49 71.58l-.15.25h-5.57l.15-.25 55.59-73.39c.04-.07.64-1.07.64-1.07 2.21-3.82 5.59-12.42 5.59-18 0-17.08-15.99-30.99-34.41-30.99s-33.39 13.91-33.39 30.99 14.16 30.24 31.88 30.97c0 0 2.4.02 4.08-.06l-3.64 4.82c-1.5-.03-3.21-.18-3.21-.18-19.04-2.01-33.88-17.17-33.88-35.54 0-19.72 17.12-35.77 38.17-35.77s39.17 16.05 39.17 35.77z" fill="#fff"/>
  <path d="m94.52 44.35c0-24.45-21.99-44.35-47.77-44.35s-46.75 19.9-46.75 44.35c0 22.22 17.33 40.69 39.85 43.85l6.16-8.12 3.64-4.82 7.82-10.32c-5.26 2.04-10.72 1.82-10.72 1.82-13.68 0-24.81-10.06-24.81-22.41s11.13-22.41 24.81-22.41 25.82 10.05 25.82 22.41c0 4.39-3.9 13.05-5.87 16.02l-57.82 76.44h25.58l51.36-65.55h-.02c4.24-6.68 8.71-18.56 8.71-26.91z" fill="#ef415f"/>
  <path d="m86.26 44.35c0 6.08-3.65 15.87-6.53 20.88-.1.18-54.49 71.58-54.49 71.58l-.15.25h-5.57l.15-.25 55.59-73.4c.04-.07.64-1.07.64-1.07 2.21-3.82 5.59-12.42 5.59-18 0-17.08-15.99-30.99-34.41-30.99s-33.39 13.91-33.39 31 14.16 30.24 31.88 30.97c0 0 2.4.02 4.08-.06l-3.64 4.82c-1.5-.03-3.21-.18-3.21-.18-19.04-2.01-33.88-17.17-33.88-35.54 0-19.73 17.12-35.79 38.17-35.79s39.17 16.05 39.17 35.77z" fill="#fff"/>
</svg>
